<svg version="1.1" id="Layer_1" xmlns="http://www.w3.org/2000/svg" xmlns:xlink="http://www.w3.org/1999/xlink" x="0px" y="0px"
	 width="100%" viewBox="0 0 752 107" enable-background="new 0 0 752 107" xml:space="preserve">
<path fill="#FEFEFF" opacity="1.000000" stroke="none" 
	d="
M556.000000,108.000000 
	C370.666656,108.000000 185.833328,108.000000 1.000000,108.000000 
	C1.000000,72.333336 1.000000,36.666668 1.000000,1.000000 
	C251.666672,1.000000 502.333344,1.000000 753.000000,1.000000 
	C753.000000,36.666668 753.000000,72.333336 753.000000,108.000000 
	C687.500000,108.000000 622.000000,108.000000 556.000000,108.000000 
M67.500290,91.875359 
	C79.988052,91.875259 92.477104,91.988892 104.963249,91.846680 
	C121.099937,91.662895 133.661957,79.843521 133.605255,64.668571 
	C133.549774,49.813343 122.093460,36.228390 105.378319,36.702530 
	C103.718781,36.749603 101.487343,35.342350 100.399025,33.932545 
	C89.227310,19.460836 67.796555,19.067711 56.992584,33.529491 
	C55.021492,36.167919 53.152752,36.894936 50.105816,36.906197 
	C38.788822,36.948025 28.473064,44.475193 25.066391,54.850315 
	C18.975843,73.399246 31.230440,90.930359 51.017414,91.825203 
	C56.168686,92.058159 61.339005,91.870003 67.500290,91.875359 
M325.233734,34.915096 
	C316.101807,32.684883 308.469269,34.418171 303.274261,44.069889 
	C303.046417,40.826473 302.881409,38.477802 302.715271,36.112595 
	C298.644440,36.112595 294.936829,36.112595 291.259033,36.112595 
	C291.259033,52.911438 291.259033,69.303284 291.259033,85.598999 
	C296.355225,85.598999 301.079681,85.598999 306.017609,85.598999 
	C306.017609,75.875854 305.891937,66.550995 306.063049,57.231583 
	C306.171906,51.302845 309.431763,47.874432 314.285370,47.964821 
	C318.905090,48.050854 321.646790,51.325577 321.965027,57.223434 
	C322.054718,58.885227 321.996216,60.555298 321.996643,62.221573 
	C321.998688,70.000702 321.997559,77.779831 321.997559,85.694016 
	C327.275299,85.694016 332.003784,85.694016 337.135559,85.694016 
	C337.135559,80.093330 337.099701,74.793045 337.146576,69.493507 
	C337.186310,65.001472 336.972565,60.468777 337.500488,56.028931 
	C338.204803,50.105431 341.339050,47.529873 346.260529,47.991745 
	C350.425385,48.382607 352.913910,51.554718 353.036194,56.942402 
	C353.149597,61.938957 353.075226,66.939827 353.078949,71.938797 
	C353.082367,76.532310 353.079681,81.125824 353.079681,85.750427 
	C358.461365,85.750427 363.067139,85.750427 367.777130,85.750427 
	C367.777130,73.403877 368.446381,61.256126 367.554474,49.224106 
	C366.901672,40.417934 361.373840,35.416004 353.796356,34.295177 
	C345.658264,33.091423 339.045624,35.594437 335.287537,42.489822 
	C332.070221,39.942005 329.033722,37.537354 325.233734,34.915096 
M174.961044,84.787498 
	C182.763657,87.606720 190.701019,88.564026 198.946091,87.002502 
	C211.853973,84.557907 222.614624,72.901268 222.554184,60.475422 
	C218.138535,60.475422 213.699020,60.337521 209.282440,60.594078 
	C208.419495,60.644203 207.351013,62.089405 206.877502,63.120781 
	C203.422668,70.646080 197.231522,73.265686 189.441132,72.999825 
	C181.881271,72.741844 176.496887,69.149139 173.710632,62.059002 
	C171.105621,55.429955 171.178406,48.710281 173.963348,42.163677 
	C176.764099,35.579903 181.834595,32.116909 189.071869,31.880650 
	C197.970352,31.590160 203.961670,35.518852 206.551956,43.917362 
	C211.861374,43.917362 216.791977,43.917362 221.652374,43.917362 
	C221.779266,43.282883 221.909988,42.957516 221.894257,42.639385 
	C221.861572,41.977966 221.801666,41.309765 221.665375,40.662800 
	C219.327118,29.563351 212.522079,22.230433 201.913940,18.928391 
	C189.660690,15.114264 177.858353,16.317921 167.586258,24.758699 
	C150.300064,38.963093 152.125290,73.697861 174.961044,84.787498 
M602.888367,94.475296 
	C602.888367,90.347771 602.888367,86.220245 602.888367,81.437973 
	C604.175293,82.361320 604.937561,82.909805 605.701477,83.456062 
	C618.689087,92.743454 636.980713,86.476021 640.614258,70.897919 
	C642.002747,64.945335 641.977051,58.251617 640.870422,52.211781 
	C638.367432,38.550766 625.280396,30.875887 612.184448,35.290955 
	C607.647827,36.820381 603.885193,40.645679 599.993835,43.270676 
	C599.910950,41.372559 599.797424,38.773067 599.675903,35.991211 
	C595.472107,35.991211 591.724121,35.991211 587.838867,35.991211 
	C587.838867,58.790375 587.838867,81.301003 587.838867,103.731056 
	C593.020325,103.731056 597.757385,103.731056 602.888306,103.731056 
	C602.888306,100.729317 602.888306,98.091331 602.888367,94.475296 
M246.885712,74.477371 
	C246.921402,68.647148 246.855087,62.814003 247.022263,56.987556 
	C247.180389,51.476379 250.190292,48.203270 254.973007,47.977615 
	C260.022034,47.739388 263.489899,50.834400 263.816437,56.643196 
	C264.161926,62.788689 263.935150,68.966576 263.950256,75.130333 
	C263.959015,78.703949 263.951843,82.277603 263.951843,85.709030 
	C269.407593,85.709030 274.010376,85.709030 278.855682,85.709030 
	C278.855682,74.129105 279.312805,62.812939 278.690002,51.556522 
	C278.295105,44.419205 275.636658,37.642124 267.857330,35.082020 
	C260.260925,32.582111 253.394562,33.949535 247.931366,40.248062 
	C247.812408,40.385208 247.353378,40.227379 246.635803,40.179039 
	C246.635803,33.264896 246.635803,26.330778 246.635803,19.381035 
	C241.485031,19.381035 236.757721,19.381035 231.953293,19.381035 
	C231.953293,41.675076 231.953293,63.589577 231.953293,85.674469 
	C236.975327,85.674469 241.698547,85.674469 246.885620,85.674469 
	C246.885620,82.064110 246.885620,78.766113 246.885712,74.477371 
M702.224915,51.484802 
	C697.155701,37.472458 682.850159,30.756596 667.167786,35.026920 
	C653.271606,38.810875 645.760803,51.847862 648.745911,67.002892 
	C651.481995,80.893616 663.983398,89.461090 678.898132,87.666794 
	C691.522461,86.148041 700.202881,79.981827 702.402954,69.433487 
	C703.550476,63.931782 702.554077,57.982922 702.224915,51.484802 
M502.510620,65.001915 
	C509.606750,65.001915 516.702881,65.001915 523.692688,65.001915 
	C525.659485,48.445351 516.881287,35.477211 503.310333,34.052177 
	C486.450714,32.281815 475.140747,41.327278 473.568939,58.646236 
	C472.379486,71.752213 479.208435,85.850349 497.080414,87.710617 
	C509.880310,89.042953 521.486023,81.382477 522.783142,69.924294 
	C516.936096,70.750725 511.278748,68.460358 505.582031,73.425003 
	C499.324036,78.878784 490.114227,73.934990 488.577087,65.001923 
	C492.927612,65.001923 497.222534,65.001923 502.510620,65.001915 
M425.948608,82.284164 
	C425.948608,66.879707 425.948608,51.475246 425.948608,36.165268 
	C420.447784,36.165268 415.735321,36.165268 410.773254,36.165268 
	C410.773254,41.102116 410.846771,45.586594 410.754730,50.067673 
	C410.638855,55.707928 410.618591,61.365822 410.122345,66.977669 
	C409.720978,71.516617 406.395020,73.685104 402.198914,73.749580 
	C397.814850,73.816956 395.097961,71.158234 394.438477,66.797447 
	C394.092926,64.512611 394.100098,62.162521 394.088806,59.841213 
	C394.050171,51.912605 394.074005,43.983700 394.074005,35.940781 
	C388.774170,35.940781 384.177460,35.940781 379.777679,35.940781 
	C379.777679,48.412029 378.961029,60.719475 380.033447,72.860054 
	C380.907135,82.750671 386.733734,87.036865 396.460602,87.571068 
	C403.691620,87.968193 409.581970,85.292290 413.884460,79.081032 
	C413.884460,81.206200 413.884460,83.331367 413.884460,85.989838 
	C417.249023,85.989838 420.394257,86.193382 423.482483,85.863449 
	C424.386688,85.766846 425.128845,84.153465 425.948608,82.284164 
M561.051575,38.205315 
	C558.706970,42.870735 556.362427,47.536160 553.595398,53.042175 
	C550.698608,47.681557 548.432678,43.263531 545.926025,38.986610 
	C545.172241,37.700527 543.811829,35.971634 542.620239,35.881130 
	C537.903381,35.522869 533.143311,35.733944 527.525696,35.733944 
	C531.934021,43.454639 536.042236,50.252003 539.671570,57.296093 
	C540.539062,58.979675 540.541199,61.855938 539.684509,63.546810 
	C536.607971,69.618828 532.972412,75.406296 529.597473,81.329445 
	C528.847656,82.645447 528.299255,84.076187 527.402344,86.003822 
	C531.665100,86.003822 535.010193,85.759285 538.302246,86.072487 
	C541.604858,86.386711 543.433472,85.200943 544.888855,82.243126 
	C547.272827,77.398232 550.107666,72.775200 553.107849,67.424629 
	C556.525391,73.144592 559.454895,78.131058 562.485779,83.055107 
	C563.144836,84.125809 564.125671,85.746178 565.029053,85.794640 
	C570.027222,86.062790 575.047241,85.923027 581.010864,85.923027 
	C576.046082,77.951866 571.947083,70.925697 567.371948,64.224640 
	C565.276733,61.155800 565.301880,58.848717 567.144409,55.744713 
	C570.837219,49.523537 574.120544,43.059242 577.572937,36.695312 
	C577.284363,36.141651 576.995789,35.587986 576.707214,35.034321 
	C571.611023,35.848717 566.514893,36.663116 561.051575,38.205315 
M713.808228,57.499992 
	C713.808228,66.911842 713.808228,76.323700 713.808228,85.588242 
	C719.344177,85.588242 724.072144,85.588242 728.702515,85.588242 
	C728.702515,63.251888 728.702515,41.325794 728.702515,19.371599 
	C721.678833,19.371599 714.955688,19.371599 708.211548,19.371599 
	C708.211548,23.160498 708.211548,26.576159 708.211548,29.939602 
	C713.792053,30.731899 713.800049,30.731890 713.806274,36.003574 
	C713.814331,42.835705 713.808044,49.667854 713.808228,57.499992 
M438.658539,82.374924 
	C439.373505,83.576622 440.007965,85.750130 440.816956,85.817139 
	C445.033875,86.166451 449.295166,85.980011 453.888824,85.980011 
	C453.888824,78.276955 453.885284,71.315926 453.889618,64.354904 
	C453.897614,51.503338 456.195435,48.996258 468.926575,47.890606 
	C469.191620,47.867592 469.430267,47.540283 469.725220,47.322460 
	C469.725220,43.408916 469.725220,39.480362 469.725220,35.304543 
	C460.997894,34.054169 455.210114,37.863003 451.094574,46.017979 
	C450.902405,41.948952 450.764313,39.024445 450.627625,36.130249 
	C446.431458,36.130249 442.717743,36.130249 438.656830,36.130249 
	C438.656830,51.502048 438.656830,66.450737 438.658539,82.374924 
z"/>
<path fill="#566BF9" opacity="1.000000" stroke="none" 
	d="
M67.000427,91.875305 
	C61.339005,91.870003 56.168686,92.058159 51.017414,91.825203 
	C31.230440,90.930359 18.975843,73.399246 25.066391,54.850315 
	C28.473064,44.475193 38.788822,36.948025 50.105816,36.906197 
	C53.152752,36.894936 55.021492,36.167919 56.992584,33.529491 
	C67.796555,19.067711 89.227310,19.460836 100.399025,33.932545 
	C101.487343,35.342350 103.718781,36.749603 105.378319,36.702530 
	C122.093460,36.228390 133.549774,49.813343 133.605255,64.668571 
	C133.661957,79.843521 121.099937,91.662895 104.963249,91.846680 
	C92.477104,91.988892 79.988052,91.875259 67.000427,91.875305 
M103.046104,50.943459 
	C96.286880,52.662178 93.023369,57.442074 92.165276,63.764275 
	C87.445274,63.764275 83.207703,63.764275 78.975845,63.764275 
	C78.332893,54.425732 83.274399,48.099323 89.140488,42.351635 
	C84.566475,37.292309 79.452217,35.523933 74.326500,37.392704 
	C65.792511,40.504089 64.040382,47.365314 65.205376,55.524845 
	C60.820076,57.016869 56.873116,58.359753 52.587151,59.817978 
	C51.747074,56.275333 51.117218,53.619194 50.500099,51.016773 
	C41.796570,52.179333 36.739479,57.700912 37.182991,65.227165 
	C37.589352,72.122856 43.704803,77.873055 51.340122,77.937790 
	C69.167244,78.088959 86.996872,78.058479 104.824730,77.962349 
	C113.747192,77.914238 119.949860,72.014542 119.806343,63.962963 
	C119.667717,56.185726 112.344429,49.071278 103.046104,50.943459 
z"/>
<path fill="#5369F9" opacity="1.000000" stroke="none" 
	d="
M325.615479,35.023895 
	C329.033722,37.537354 332.070221,39.942005 335.287537,42.489822 
	C339.045624,35.594437 345.658264,33.091423 353.796356,34.295177 
	C361.373840,35.416004 366.901672,40.417934 367.554474,49.224106 
	C368.446381,61.256126 367.777130,73.403877 367.777130,85.750427 
	C363.067139,85.750427 358.461365,85.750427 353.079681,85.750427 
	C353.079681,81.125824 353.082367,76.532310 353.078949,71.938797 
	C353.075226,66.939827 353.149597,61.938957 353.036194,56.942402 
	C352.913910,51.554718 350.425385,48.382607 346.260529,47.991745 
	C341.339050,47.529873 338.204803,50.105431 337.500488,56.028931 
	C336.972565,60.468777 337.186310,65.001472 337.146576,69.493507 
	C337.099701,74.793045 337.135559,80.093330 337.135559,85.694016 
	C332.003784,85.694016 327.275299,85.694016 321.997559,85.694016 
	C321.997559,77.779831 321.998688,70.000702 321.996643,62.221573 
	C321.996216,60.555298 322.054718,58.885227 321.965027,57.223434 
	C321.646790,51.325577 318.905090,48.050854 314.285370,47.964821 
	C309.431763,47.874432 306.171906,51.302845 306.063049,57.231583 
	C305.891937,66.550995 306.017609,75.875854 306.017609,85.598999 
	C301.079681,85.598999 296.355225,85.598999 291.259033,85.598999 
	C291.259033,69.303284 291.259033,52.911438 291.259033,36.112595 
	C294.936829,36.112595 298.644440,36.112595 302.715271,36.112595 
	C302.881409,38.477802 303.046417,40.826473 303.274261,44.069889 
	C308.469269,34.418171 316.101807,32.684883 325.615479,35.023895 
z"/>
<path fill="#556AF9" opacity="1.000000" stroke="none" 
	d="
M174.628082,84.601891 
	C152.125290,73.697861 150.300064,38.963093 167.586258,24.758699 
	C177.858353,16.317921 189.660690,15.114264 201.913940,18.928391 
	C212.522079,22.230433 219.327118,29.563351 221.665375,40.662800 
	C221.801666,41.309765 221.861572,41.977966 221.894257,42.639385 
	C221.909988,42.957516 221.779266,43.282883 221.652374,43.917362 
	C216.791977,43.917362 211.861374,43.917362 206.551956,43.917362 
	C203.961670,35.518852 197.970352,31.590160 189.071869,31.880650 
	C181.834595,32.116909 176.764099,35.579903 173.963348,42.163677 
	C171.178406,48.710281 171.105621,55.429955 173.710632,62.059002 
	C176.496887,69.149139 181.881271,72.741844 189.441132,72.999825 
	C197.231522,73.265686 203.422668,70.646080 206.877502,63.120781 
	C207.351013,62.089405 208.419495,60.644203 209.282440,60.594078 
	C213.699020,60.337521 218.138535,60.475422 222.554184,60.475422 
	C222.614624,72.901268 211.853973,84.557907 198.946091,87.002502 
	C190.701019,88.564026 182.763657,87.606720 174.628082,84.601891 
z"/>
<path fill="#546AF9" opacity="1.000000" stroke="none" 
	d="
M602.888306,94.964325 
	C602.888306,98.091331 602.888306,100.729317 602.888306,103.731056 
	C597.757385,103.731056 593.020325,103.731056 587.838867,103.731056 
	C587.838867,81.301003 587.838867,58.790375 587.838867,35.991211 
	C591.724121,35.991211 595.472107,35.991211 599.675903,35.991211 
	C599.797424,38.773067 599.910950,41.372559 599.993835,43.270676 
	C603.885193,40.645679 607.647827,36.820381 612.184448,35.290955 
	C625.280396,30.875887 638.367432,38.550766 640.870422,52.211781 
	C641.977051,58.251617 642.002747,64.945335 640.614258,70.897919 
	C636.980713,86.476021 618.689087,92.743454 605.701477,83.456062 
	C604.937561,82.909805 604.175293,82.361320 602.888367,81.437973 
	C602.888367,86.220245 602.888367,90.347771 602.888306,94.964325 
M622.972412,50.539925 
	C617.869385,46.370495 613.347107,45.838894 608.360718,48.822285 
	C603.386292,51.798500 601.351196,57.546070 602.763550,64.630051 
	C603.937927,70.521004 608.878601,74.772087 614.579529,74.796906 
	C619.894104,74.820045 624.551453,70.981567 625.981873,65.330635 
	C627.273621,60.227180 626.638000,55.438637 622.972412,50.539925 
z"/>
<path fill="#5469F9" opacity="1.000000" stroke="none" 
	d="
M246.885666,74.972748 
	C246.885620,78.766113 246.885620,82.064110 246.885620,85.674469 
	C241.698547,85.674469 236.975327,85.674469 231.953293,85.674469 
	C231.953293,63.589577 231.953293,41.675076 231.953293,19.381035 
	C236.757721,19.381035 241.485031,19.381035 246.635803,19.381035 
	C246.635803,26.330778 246.635803,33.264896 246.635803,40.179039 
	C247.353378,40.227379 247.812408,40.385208 247.931366,40.248062 
	C253.394562,33.949535 260.260925,32.582111 267.857330,35.082020 
	C275.636658,37.642124 278.295105,44.419205 278.690002,51.556522 
	C279.312805,62.812939 278.855682,74.129105 278.855682,85.709030 
	C274.010376,85.709030 269.407593,85.709030 263.951843,85.709030 
	C263.951843,82.277603 263.959015,78.703949 263.950256,75.130333 
	C263.935150,68.966576 264.161926,62.788689 263.816437,56.643196 
	C263.489899,50.834400 260.022034,47.739388 254.973007,47.977615 
	C250.190292,48.203270 247.180389,51.476379 247.022263,56.987556 
	C246.855087,62.814003 246.921402,68.647148 246.885666,74.972748 
z"/>
<path fill="#556BF9" opacity="1.000000" stroke="none" 
	d="
M702.375488,51.860420 
	C702.554077,57.982922 703.550476,63.931782 702.402954,69.433487 
	C700.202881,79.981827 691.522461,86.148041 678.898132,87.666794 
	C663.983398,89.461090 651.481995,80.893616 648.745911,67.002892 
	C645.760803,51.847862 653.271606,38.810875 667.167786,35.026920 
	C682.850159,30.756596 697.155701,37.472458 702.375488,51.860420 
M675.574219,46.979115 
	C668.265320,47.875641 664.448120,51.696472 663.807739,58.757000 
	C663.081360,66.766251 665.959229,72.198929 671.913696,74.058899 
	C679.266235,76.355560 686.333252,72.302238 687.913025,64.882500 
	C689.930359,55.407036 685.288574,48.189682 675.574219,46.979115 
z"/>
<path fill="#546AF9" opacity="1.000000" stroke="none" 
	d="
M502.014038,65.001923 
	C497.222534,65.001923 492.927612,65.001923 488.577087,65.001923 
	C490.114227,73.934990 499.324036,78.878784 505.582031,73.425003 
	C511.278748,68.460358 516.936096,70.750725 522.783142,69.924294 
	C521.486023,81.382477 509.880310,89.042953 497.080414,87.710617 
	C479.208435,85.850349 472.379486,71.752213 473.568939,58.646236 
	C475.140747,41.327278 486.450714,32.281815 503.310333,34.052177 
	C516.881287,35.477211 525.659485,48.445351 523.692688,65.001915 
	C516.702881,65.001915 509.606750,65.001915 502.014038,65.001923 
M505.760620,48.665592 
	C501.670258,45.861485 497.214600,45.487289 493.239563,48.248055 
	C491.056091,49.764538 489.852966,52.692600 487.721436,55.661766 
	C495.892242,55.661766 502.405426,55.661766 510.033813,55.661766 
	C508.518738,53.007950 507.425476,51.092964 505.760620,48.665592 
z"/>
<path fill="#5369F9" opacity="1.000000" stroke="none" 
	d="
M425.946930,82.759720 
	C425.128845,84.153465 424.386688,85.766846 423.482483,85.863449 
	C420.394257,86.193382 417.249023,85.989838 413.884460,85.989838 
	C413.884460,83.331367 413.884460,81.206200 413.884460,79.081032 
	C409.581970,85.292290 403.691620,87.968193 396.460602,87.571068 
	C386.733734,87.036865 380.907135,82.750671 380.033447,72.860054 
	C378.961029,60.719475 379.777679,48.412029 379.777679,35.940781 
	C384.177460,35.940781 388.774170,35.940781 394.074005,35.940781 
	C394.074005,43.983700 394.050171,51.912605 394.088806,59.841213 
	C394.100098,62.162521 394.092926,64.512611 394.438477,66.797447 
	C395.097961,71.158234 397.814850,73.816956 402.198914,73.749580 
	C406.395020,73.685104 409.720978,71.516617 410.122345,66.977669 
	C410.618591,61.365822 410.638855,55.707928 410.754730,50.067673 
	C410.846771,45.586594 410.773254,41.102116 410.773254,36.165268 
	C415.735321,36.165268 420.447784,36.165268 425.948608,36.165268 
	C425.948608,51.475246 425.948608,66.879707 425.946930,82.759720 
z"/>
<path fill="#556AF9" opacity="1.000000" stroke="none" 
	d="
M561.235107,37.841415 
	C566.514893,36.663116 571.611023,35.848717 576.707214,35.034321 
	C576.995789,35.587986 577.284363,36.141651 577.572937,36.695312 
	C574.120544,43.059242 570.837219,49.523537 567.144409,55.744713 
	C565.301880,58.848717 565.276733,61.155800 567.371948,64.224640 
	C571.947083,70.925697 576.046082,77.951866 581.010864,85.923027 
	C575.047241,85.923027 570.027222,86.062790 565.029053,85.794640 
	C564.125671,85.746178 563.144836,84.125809 562.485779,83.055107 
	C559.454895,78.131058 556.525391,73.144592 553.107849,67.424629 
	C550.107666,72.775200 547.272827,77.398232 544.888855,82.243126 
	C543.433472,85.200943 541.604858,86.386711 538.302246,86.072487 
	C535.010193,85.759285 531.665100,86.003822 527.402344,86.003822 
	C528.299255,84.076187 528.847656,82.645447 529.597473,81.329445 
	C532.972412,75.406296 536.607971,69.618828 539.684509,63.546810 
	C540.541199,61.855938 540.539062,58.979675 539.671570,57.296093 
	C536.042236,50.252003 531.934021,43.454639 527.525696,35.733944 
	C533.143311,35.733944 537.903381,35.522869 542.620239,35.881130 
	C543.811829,35.971634 545.172241,37.700527 545.926025,38.986610 
	C548.432678,43.263531 550.698608,47.681557 553.595398,53.042175 
	C556.362427,47.536160 558.706970,42.870735 561.235107,37.841415 
z"/>
<path fill="#5268F9" opacity="1.000000" stroke="none" 
	d="
M713.808105,56.999992 
	C713.808044,49.667854 713.814331,42.835705 713.806274,36.003574 
	C713.800049,30.731890 713.792053,30.731899 708.211548,29.939602 
	C708.211548,26.576159 708.211548,23.160498 708.211548,19.371599 
	C714.955688,19.371599 721.678833,19.371599 728.702515,19.371599 
	C728.702515,41.325794 728.702515,63.251888 728.702515,85.588242 
	C724.072144,85.588242 719.344177,85.588242 713.808228,85.588242 
	C713.808228,76.323700 713.808228,66.911842 713.808105,56.999992 
z"/>
<path fill="#546AF9" opacity="1.000000" stroke="none" 
	d="
M438.657684,81.887177 
	C438.656830,66.450737 438.656830,51.502048 438.656830,36.130249 
	C442.717743,36.130249 446.431458,36.130249 450.627625,36.130249 
	C450.764313,39.024445 450.902405,41.948952 451.094574,46.017979 
	C455.210114,37.863003 460.997894,34.054169 469.725220,35.304543 
	C469.725220,39.480362 469.725220,43.408916 469.725220,47.322460 
	C469.430267,47.540283 469.191620,47.867592 468.926575,47.890606 
	C456.195435,48.996258 453.897614,51.503338 453.889618,64.354904 
	C453.885284,71.315926 453.888824,78.276955 453.888824,85.980011 
	C449.295166,85.980011 445.033875,86.166451 440.816956,85.817139 
	C440.007965,85.750130 439.373505,83.576622 438.657684,81.887177 
z"/>
<path fill="#FEFEFF" opacity="1.000000" stroke="none" 
	d="
M103.467300,50.878090 
	C112.344429,49.071278 119.667717,56.185726 119.806343,63.962963 
	C119.949860,72.014542 113.747192,77.914238 104.824730,77.962349 
	C86.996872,78.058479 69.167244,78.088959 51.340122,77.937790 
	C43.704803,77.873055 37.589352,72.122856 37.182991,65.227165 
	C36.739479,57.700912 41.796570,52.179333 50.500099,51.016773 
	C51.117218,53.619194 51.747074,56.275333 52.587151,59.817978 
	C56.873116,58.359753 60.820076,57.016869 65.205376,55.524845 
	C64.040382,47.365314 65.792511,40.504089 74.326500,37.392704 
	C79.452217,35.523933 84.566475,37.292309 89.140488,42.351635 
	C83.274399,48.099323 78.332893,54.425732 78.975845,63.764275 
	C83.207703,63.764275 87.445274,63.764275 92.165276,63.764275 
	C93.023369,57.442074 96.286880,52.662178 103.467300,50.878090 
z"/>
<path fill="#FBFBFF" opacity="1.000000" stroke="none" 
	d="
M623.226318,50.822884 
	C626.638000,55.438637 627.273621,60.227180 625.981873,65.330635 
	C624.551453,70.981567 619.894104,74.820045 614.579529,74.796906 
	C608.878601,74.772087 603.937927,70.521004 602.763550,64.630051 
	C601.351196,57.546070 603.386292,51.798500 608.360718,48.822285 
	C613.347107,45.838894 617.869385,46.370495 623.226318,50.822884 
z"/>
<path fill="#FCFDFF" opacity="1.000000" stroke="none" 
	d="
M675.986328,46.979198 
	C685.288574,48.189682 689.930359,55.407036 687.913025,64.882500 
	C686.333252,72.302238 679.266235,76.355560 671.913696,74.058899 
	C665.959229,72.198929 663.081360,66.766251 663.807739,58.757000 
	C664.448120,51.696472 668.265320,47.875641 675.986328,46.979198 
z"/>
<path fill="#FAFBFF" opacity="1.000000" stroke="none" 
	d="
M506.046417,48.921783 
	C507.425476,51.092964 508.518738,53.007950 510.033813,55.661766 
	C502.405426,55.661766 495.892242,55.661766 487.721436,55.661766 
	C489.852966,52.692600 491.056091,49.764538 493.239563,48.248055 
	C497.214600,45.487289 501.670258,45.861485 506.046417,48.921783 
z"/>
</svg>